<mxfile host="Electron" agent="Mozilla/5.0 (X11; Linux x86_64) AppleWebKit/537.36 (KHTML, like Gecko) draw.io/26.0.7 Chrome/128.0.6613.186 Electron/32.2.5 Safari/537.36" version="26.0.7">
  <diagram name="Page-1" id="2u1qPbU-iLl6TWkZqkQm">
    <mxGraphModel dx="1434" dy="856" grid="1" gridSize="10" guides="1" tooltips="1" connect="1" arrows="1" fold="1" page="1" pageScale="1" pageWidth="1169" pageHeight="827" math="0" shadow="0">
      <root>
        <mxCell id="0" />
        <mxCell id="1" parent="0" />
        <mxCell id="h_d1nxLJ1KPGSJ6wS_GX-1" value="" style="curved=1;endArrow=classic;html=1;rounded=0;strokeWidth=6;fillColor=#f8cecc;strokeColor=#b85450;fontSize=18;" parent="1" edge="1">
          <mxGeometry width="50" height="50" relative="1" as="geometry">
            <mxPoint x="340" y="360" as="sourcePoint" />
            <mxPoint x="510" y="250" as="targetPoint" />
            <Array as="points">
              <mxPoint x="380" y="240" />
            </Array>
          </mxGeometry>
        </mxCell>
        <mxCell id="h_d1nxLJ1KPGSJ6wS_GX-3" value="Cloud Based Operating System Builder" style="text;html=1;align=center;verticalAlign=middle;whiteSpace=wrap;rounded=0;fontSize=23;" parent="1" vertex="1">
          <mxGeometry x="450" y="360" width="160" height="30" as="geometry" />
        </mxCell>
        <mxCell id="h_d1nxLJ1KPGSJ6wS_GX-5" value="Package Customisation&lt;br&gt;30 mins" style="text;html=1;align=center;verticalAlign=middle;whiteSpace=wrap;rounded=0;fontSize=18;fontColor=#B85450;" parent="1" vertex="1">
          <mxGeometry x="230" y="240" width="170" height="30" as="geometry" />
        </mxCell>
        <mxCell id="h_d1nxLJ1KPGSJ6wS_GX-7" value="" style="curved=1;endArrow=classic;html=1;rounded=0;strokeWidth=6;fillColor=#f8cecc;strokeColor=#b85450;fontSize=18;" parent="1" edge="1">
          <mxGeometry width="50" height="50" relative="1" as="geometry">
            <mxPoint x="560" y="240" as="sourcePoint" />
            <mxPoint x="700" y="380" as="targetPoint" />
            <Array as="points">
              <mxPoint x="690" y="260" />
            </Array>
          </mxGeometry>
        </mxCell>
        <mxCell id="h_d1nxLJ1KPGSJ6wS_GX-8" value="System Build&lt;div&gt;60 mins&lt;/div&gt;" style="text;html=1;align=center;verticalAlign=middle;whiteSpace=wrap;rounded=0;fontSize=18;fontColor=#B85450;" parent="1" vertex="1">
          <mxGeometry x="680" y="240" width="120" height="30" as="geometry" />
        </mxCell>
        <mxCell id="h_d1nxLJ1KPGSJ6wS_GX-11" value="" style="curved=1;endArrow=classic;html=1;rounded=0;strokeWidth=6;fillColor=#f8cecc;strokeColor=#b85450;fontSize=18;" parent="1" edge="1">
          <mxGeometry width="50" height="50" relative="1" as="geometry">
            <mxPoint x="700" y="410" as="sourcePoint" />
            <mxPoint x="570" y="510" as="targetPoint" />
            <Array as="points">
              <mxPoint x="700" y="490" />
            </Array>
          </mxGeometry>
        </mxCell>
        <mxCell id="h_d1nxLJ1KPGSJ6wS_GX-12" value="Provisioning&lt;br&gt;60 mins" style="text;html=1;align=center;verticalAlign=middle;whiteSpace=wrap;rounded=0;fontSize=18;fontColor=#B85450;" parent="1" vertex="1">
          <mxGeometry x="340" y="510" width="60" height="30" as="geometry" />
        </mxCell>
        <mxCell id="h_d1nxLJ1KPGSJ6wS_GX-13" value="" style="curved=1;endArrow=classic;html=1;rounded=0;strokeWidth=6;fillColor=#f8cecc;strokeColor=#b85450;fontSize=18;" parent="1" edge="1">
          <mxGeometry width="50" height="50" relative="1" as="geometry">
            <mxPoint x="540" y="510" as="sourcePoint" />
            <mxPoint x="340" y="390" as="targetPoint" />
            <Array as="points">
              <mxPoint x="330" y="500" />
            </Array>
          </mxGeometry>
        </mxCell>
        <mxCell id="h_d1nxLJ1KPGSJ6wS_GX-14" value="ISO Download&lt;br&gt;20 Mins" style="text;html=1;align=center;verticalAlign=middle;whiteSpace=wrap;rounded=0;fontSize=18;fontColor=#B85450;" parent="1" vertex="1">
          <mxGeometry x="690" y="500" width="60" height="30" as="geometry" />
        </mxCell>
      </root>
    </mxGraphModel>
  </diagram>
</mxfile>
